<?xml version="1.0" encoding="UTF-8" standalone="no"?>
<!DOCTYPE svg PUBLIC "-//W3C//DTD SVG 1.1//EN" "http://www.w3.org/Graphics/SVG/1.1/DTD/svg11.dtd">
<svg width="100%" height="100%" viewBox="0 0 512 512" version="1.1" xmlns="http://www.w3.org/2000/svg" xmlns:xlink="http://www.w3.org/1999/xlink" xml:space="preserve" xmlns:serif="http://www.serif.com/" style="fill-rule:evenodd;clip-rule:evenodd;stroke-linecap:round;stroke-linejoin:round;stroke-miterlimit:1.5;">
    <g id="Edge--v2.1-" serif:id="Edge (v2.1)" transform="matrix(0.617425,0,0,0.611683,1001.81,-1079.34)">
        <path d="M-1350.04,1928.71C-1350.04,1928.71 -1402.69,1957.53 -1436.76,2052.91C-1459.43,2116.39 -1478.76,2229.38 -1451.03,2309.92C-1378.84,2313.49 -1332.15,2317.64 -1280.25,2337.23C-1217.07,2361.08 -1212,2342.11 -1097.71,2399.05C-1042.29,2297.58 -1021.19,2200.42 -1014.74,2107.03C-1117.65,2013.38 -1230.5,1958.11 -1350.04,1928.71Z" style="fill:none;stroke:black;stroke-width:6.78px;stroke-dasharray:27.12,13.56,27.12,13.56,27.12,13.56;"/>
    </g>
    <g transform="matrix(0.617425,0,0,0.611683,118.132,-316.003)">
        <g transform="matrix(50,0,0,50,96.1922,700.693)">
        </g>
        <text x="62.843px" y="700.693px" style="font-family:'ArialMT', 'Arial', sans-serif;font-size:50px;">A</text>
    </g>
    <g transform="matrix(0.617425,0,0,0.611683,56.3747,-82.4932)">
        <g transform="matrix(50,0,0,50,96.1922,700.693)">
        </g>
        <text x="62.843px" y="700.693px" style="font-family:'ArialMT', 'Arial', sans-serif;font-size:50px;">B</text>
    </g>
    <g transform="matrix(0.617425,0,0,0.611683,274.091,-30.5207)">
        <g transform="matrix(50,0,0,50,98.951,700.693)">
        </g>
        <text x="62.843px" y="700.693px" style="font-family:'ArialMT', 'Arial', sans-serif;font-size:50px;">C</text>
    </g>
    <g transform="matrix(0.617425,0,0,0.611683,327.027,-209.729)">
        <g transform="matrix(50,0,0,50,98.951,700.693)">
        </g>
        <text x="62.843px" y="700.693px" style="font-family:'ArialMT', 'Arial', sans-serif;font-size:50px;">D</text>
    </g>
</svg>
